# xmcd CD database file generated by GCD 2.7
# 
# Track frame offsets:
#       187
#       17507
#       36914
#       58164
#       79594
#       94779
#       112084
#       130107
#       147712
#       166904
# 
# Disc length: 2475 seconds
# 
# Revision: 3
# Processed by: cddbd v1.4b41PL1 Copyright (c) Steve Scherf et al.
# Submitted via: GCD 2.7
# 
DISCID=8509a90a
DTITLE=Blindside Blues Band - BlindSide Blues Band
DYEAR=1900
DGENRE=
TTITLE0=Bad Premonition
TTITLE1=Renegade
TTITLE2=Hit The Highway
TTITLE3=Blues In My Soul
TTITLE4=Flying
TTITLE5=Back Against The Wall
TTITLE6=Powerful Thing
TTITLE7=Burnings Cities
TTITLE8=Early Grave
TTITLE9=Winner Takes It All
EXTD=
EXTT0=
EXTT1=
EXTT2=
EXTT3=
EXTT4=
EXTT5=
EXTT6=
EXTT7=
EXTT8=
EXTT9=
PLAYORDER=
